<svg width="74" height="39" viewBox="0 0 74 39" fill="none" xmlns="http://www.w3.org/2000/svg">
<path d="M9.25215 31.851C6.22248 25.2419 6.80494 16.2227 7.80789 7.29643C10.1808 7.74813 12.4623 8.30235 14.6525 8.9591C15.5886 9.26891 16.3441 9.61214 16.9303 9.98212C17.5187 10.3476 17.9845 10.7756 18.3278 11.2726C18.6732 11.7518 18.9451 12.3402 19.148 13.0356C19.3485 13.7198 19.5291 14.5511 19.6918 15.5318C19.717 15.6819 19.7423 15.8327 19.7676 15.9842C19.9303 16.9203 20.0194 17.7071 20.0417 18.3579C20.0662 19.002 19.9793 19.5258 19.7809 19.9292C19.5848 20.3437 19.246 20.6602 18.7579 20.8853C18.2676 21.1127 17.5811 21.2665 16.6851 21.3578C14.9125 21.6208 11.3665 22.4663 9.25214 23.0071C9.25214 26.1052 10.582 28.5256 11.7083 30.9595C11.319 31.1021 9.6563 31.7024 9.25215 31.851ZM18.5484 15.3468C18.4236 14.5935 18.2921 13.9895 18.1495 13.5192C18.0046 13.0512 17.8085 12.6723 17.5544 12.3847C17.3003 12.095 16.9481 11.8543 16.4979 11.6626C16.0455 11.4665 15.4459 11.2704 14.6948 11.0854C12.9594 10.7288 11.1451 10.4516 9.25214 10.254C8.81085 12.9107 8.47653 16.2227 8.81085 20.3794C10.9208 19.9203 14.2625 19.4017 16.0277 19.2338C16.7654 19.2048 17.3337 19.1424 17.7438 19.0488C18.1495 18.9485 18.4325 18.7836 18.5997 18.5496C18.7624 18.3089 18.8382 17.9723 18.8292 17.5377C18.8181 17.0919 18.7512 16.5214 18.6286 15.8193C18.6019 15.6603 18.5752 15.5028 18.5484 15.3468Z" fill="white"/>
<path d="M26.8551 26.3793C26.1218 26.6022 25.5022 26.6891 24.9918 26.6356C24.4748 26.5844 24.029 26.3214 23.6456 25.8533C23.2578 25.3697 22.899 24.6096 22.5691 23.571C22.2371 22.5124 21.9027 21.1104 21.5706 19.3542C21.0803 16.534 20.6204 13.7138 20.191 10.8937C20.5774 11.0348 20.9629 11.176 21.3478 11.3172C21.7549 14.011 22.1873 16.7034 22.6449 19.3943C22.8567 20.5488 23.0573 21.5027 23.2445 22.2494C23.4295 22.9938 23.6234 23.5777 23.824 24.0034C24.0245 24.4224 24.2474 24.7144 24.497 24.886C24.7467 25.0487 25.0409 25.1245 25.3841 25.1156C25.7229 25.1 26.1285 25.0398 26.6055 24.9306C27.2102 24.7909 27.8142 24.6527 28.4175 24.516C28.8944 24.4068 29.2912 24.2887 29.6077 24.1683C29.9308 24.0435 30.1827 23.8831 30.3677 23.6825C30.5571 23.4863 30.6908 23.2256 30.7666 22.9002C30.8446 22.5792 30.8758 22.1669 30.8602 21.6632C30.8469 21.1662 30.7934 20.5421 30.7087 19.7955C30.5081 18.0734 30.3075 16.3379 30.1069 14.589C30.4903 14.7331 30.8729 14.8758 31.2547 15.0169C31.4256 16.635 31.595 18.245 31.7629 19.8467C31.8654 20.8608 31.8877 21.6922 31.8364 22.3474C31.7919 23.0183 31.6515 23.5666 31.4152 23.99C31.1879 24.4269 30.8469 24.7902 30.39 25.0688C29.9375 25.3607 29.3491 25.6193 28.6181 25.8422C28.0312 26.0205 27.4435 26.1995 26.8551 26.3793Z" fill="white"/>
<path d="M33.8245 24.0859C33.6462 21.239 33.4419 18.45 33.2116 15.719C33.5935 15.8483 33.9753 15.9731 34.3572 16.0935C34.5162 18.3297 34.6469 20.6342 34.7495 23.0071C36.8817 22.9537 39.0703 23.1468 41.3155 23.5866C41.2991 23.9195 41.2835 24.2553 41.2687 24.594C38.6833 23.9418 36.2019 23.7724 33.8245 24.0859Z" fill="white"/>
<path d="M52.2142 23.0963C52.2521 22.4477 52.2544 21.9329 52.2209 21.5607C52.1875 21.184 52.0783 20.9076 51.8955 20.7293C51.715 20.5466 51.423 20.4307 51.0263 20.3794C50.6273 20.3215 50.0835 20.2858 49.3904 20.268C48.3161 20.2472 47.2448 20.2293 46.1765 20.2145C45.3875 20.2056 44.7545 20.1476 44.2798 20.0473C43.805 19.9515 43.4506 19.8022 43.2144 19.5993C42.9759 19.3965 42.8199 19.1291 42.7464 18.7881C42.6773 18.4537 42.6461 18.028 42.6572 17.5176C42.6706 16.956 42.733 16.4768 42.8511 16.0756C42.9737 15.6655 43.1854 15.2978 43.4908 14.9746C43.7983 14.6403 44.2307 14.3149 44.7902 14.0073C45.3473 13.6886 46.0717 13.352 46.9565 13.0021C47.799 12.6693 48.6422 12.3372 49.4862 12.0059C50.293 11.6894 50.9639 11.4665 51.4988 11.3506C52.0382 11.2325 52.4616 11.286 52.7692 11.5111C53.079 11.7429 53.2952 12.2109 53.4089 12.9107C53.527 13.624 53.5671 14.6403 53.5203 15.9642C53.1384 16.0296 52.7581 16.0942 52.3792 16.1581C52.4126 15.1819 52.3859 14.4553 52.2989 13.9895C52.2142 13.5214 52.0582 13.2317 51.8287 13.1247C51.6058 13.02 51.296 13.0266 50.9059 13.1381C50.5137 13.2495 50.03 13.3988 49.4505 13.5861C48.6289 13.852 47.8079 14.118 46.9877 14.384C46.2857 14.6135 45.724 14.8141 45.3005 14.988C44.8815 15.1551 44.5628 15.3379 44.3444 15.5251C44.1304 15.7101 43.9811 15.9419 43.9009 16.2227C43.8273 16.4946 43.785 16.8557 43.7738 17.2992C43.7649 17.6714 43.7783 17.9701 43.8229 18.1907C43.8652 18.4136 43.9722 18.5741 44.1416 18.6788C44.3132 18.7814 44.5829 18.8393 44.9484 18.8549C45.3117 18.8683 45.8109 18.8527 46.4417 18.8059C47.5947 18.7301 48.7507 18.6558 49.9097 18.583C50.7276 18.5384 51.3784 18.5719 51.8621 18.6944C52.348 18.8148 52.7068 19.0533 52.9341 19.401C53.1637 19.7576 53.3019 20.2524 53.3465 20.8787C53.3933 21.5005 53.3888 22.2895 53.3309 23.2323C53.2662 24.253 53.1592 25.1 53.0121 25.7686C52.8695 26.4172 52.6466 26.9075 52.3413 27.2285C52.0382 27.545 51.6214 27.7032 51.0887 27.7099C50.5583 27.7077 49.8718 27.5695 49.0271 27.2976C48.1489 27.0152 47.2715 26.7337 46.3949 26.4529C45.6282 26.2055 44.9885 25.9514 44.4737 25.6928C43.9566 25.4365 43.5509 25.1334 43.2523 24.7835C42.9581 24.438 42.7553 24.0056 42.6438 23.4841C42.5302 22.9737 42.49 22.3296 42.5257 21.5406C42.8883 21.5718 43.2523 21.6038 43.6178 21.6364C43.5888 22.2984 43.6067 22.8177 43.6758 23.1988C43.7449 23.5844 43.883 23.8853 44.0881 24.1015C44.2998 24.3177 44.5962 24.4937 44.9818 24.6252C45.3719 24.7545 45.8689 24.8972 46.4707 25.0487C47.3339 25.2671 48.198 25.4856 49.0627 25.704C49.7425 25.8756 50.2797 25.9737 50.6786 25.9982C51.0776 26.0138 51.3829 25.9313 51.588 25.753C51.793 25.5613 51.9379 25.256 52.0181 24.8258C52.1028 24.3979 52.1697 23.8207 52.2142 23.0963Z" fill="white"/>
<path d="M54.784 28.7775C55.209 22.5785 55.5247 16.3082 55.7313 9.96652C58.7892 8.88184 61.9421 7.893 65.1902 7C65.269 7.93906 65.3485 8.88258 65.4287 9.83056C62.4377 10.2763 59.5804 10.8603 56.8568 11.5824C56.8018 13.7919 56.732 16.0058 56.6473 18.2242C59.3174 18.187 63.8336 18.5941 67 18.9597C66.9703 19.8393 66.9272 20.7063 66.8707 21.5607C63.7088 21.0302 59.2 20.447 56.5403 20.2969C56.3902 22.6179 56.2268 24.9105 56.05 27.175C58.729 27.8956 61.5558 28.695 64.5305 29.5732C64.3507 30.3235 64.1709 31.0724 63.9911 31.8198C60.8174 30.75 57.7483 29.7359 54.784 28.7775Z" fill="white"/>
<g filter="url(#filter0_dddddddd_5051_1391)">
<path d="M9.25215 31.851C6.22248 25.2419 6.80494 16.2227 7.80789 7.29643C10.1808 7.74813 12.4623 8.30235 14.6525 8.9591C15.5886 9.26891 16.3441 9.61214 16.9303 9.98212C17.5187 10.3476 17.9845 10.7756 18.3278 11.2726C18.6732 11.7518 18.9451 12.3402 19.148 13.0356C19.3485 13.7198 19.5291 14.5511 19.6918 15.5318C19.717 15.6819 19.7423 15.8327 19.7676 15.9842C19.9303 16.9203 20.0194 17.7071 20.0417 18.3579C20.0662 19.002 19.9793 19.5258 19.7809 19.9292C19.5848 20.3437 19.246 20.6602 18.7579 20.8853C18.2676 21.1127 17.5811 21.2665 16.6851 21.3578C14.9125 21.6208 11.3665 22.4663 9.25214 23.0071C9.25214 26.1052 10.582 28.5256 11.7083 30.9595C11.319 31.1021 9.6563 31.7024 9.25215 31.851ZM18.5484 15.3468C18.4236 14.5935 18.2921 13.9895 18.1495 13.5192C18.0046 13.0512 17.8085 12.6723 17.5544 12.3847C17.3003 12.095 16.9481 11.8543 16.4979 11.6626C16.0455 11.4665 15.4459 11.2704 14.6948 11.0854C12.9594 10.7288 11.1451 10.4516 9.25214 10.254C8.81085 12.9107 8.47653 16.2227 8.81085 20.3794C10.9208 19.9203 14.2625 19.4017 16.0277 19.2338C16.7654 19.2048 17.3337 19.1424 17.7438 19.0488C18.1495 18.9485 18.4325 18.7836 18.5997 18.5496C18.7624 18.3089 18.8382 17.9723 18.8292 17.5377C18.8181 17.0919 18.7512 16.5214 18.6286 15.8193C18.6019 15.6603 18.5752 15.5028 18.5484 15.3468Z" fill="white"/>
<path d="M26.8551 26.3793C26.1218 26.6022 25.5022 26.6891 24.9918 26.6356C24.4748 26.5844 24.029 26.3214 23.6456 25.8533C23.2578 25.3697 22.899 24.6096 22.5691 23.571C22.2371 22.5124 21.9027 21.1104 21.5706 19.3542C21.0803 16.534 20.6204 13.7138 20.191 10.8937C20.5774 11.0348 20.9629 11.176 21.3478 11.3172C21.7549 14.011 22.1873 16.7034 22.6449 19.3943C22.8567 20.5488 23.0573 21.5027 23.2445 22.2494C23.4295 22.9938 23.6234 23.5777 23.824 24.0034C24.0245 24.4224 24.2474 24.7144 24.497 24.886C24.7467 25.0487 25.0409 25.1245 25.3841 25.1156C25.7229 25.1 26.1285 25.0398 26.6055 24.9306C27.2102 24.7909 27.8142 24.6527 28.4175 24.516C28.8944 24.4068 29.2912 24.2887 29.6077 24.1683C29.9308 24.0435 30.1827 23.8831 30.3677 23.6825C30.5571 23.4863 30.6908 23.2256 30.7666 22.9002C30.8446 22.5792 30.8758 22.1669 30.8602 21.6632C30.8469 21.1662 30.7934 20.5421 30.7087 19.7955C30.5081 18.0734 30.3075 16.3379 30.1069 14.589C30.4903 14.7331 30.8729 14.8758 31.2547 15.0169C31.4256 16.635 31.595 18.245 31.7629 19.8467C31.8654 20.8608 31.8877 21.6922 31.8364 22.3474C31.7919 23.0183 31.6515 23.5666 31.4152 23.99C31.1879 24.4269 30.8469 24.7902 30.39 25.0688C29.9375 25.3607 29.3491 25.6193 28.6181 25.8422C28.0312 26.0205 27.4435 26.1995 26.8551 26.3793Z" fill="white"/>
<path d="M33.8245 24.0859C33.6462 21.239 33.4419 18.45 33.2116 15.719C33.5935 15.8483 33.9753 15.9731 34.3572 16.0935C34.5162 18.3297 34.6469 20.6342 34.7495 23.0071C36.8817 22.9537 39.0703 23.1468 41.3155 23.5866C41.2991 23.9195 41.2835 24.2553 41.2687 24.594C38.6833 23.9418 36.2019 23.7724 33.8245 24.0859Z" fill="white"/>
<path d="M52.2142 23.0963C52.2521 22.4477 52.2544 21.9329 52.2209 21.5607C52.1875 21.184 52.0783 20.9076 51.8955 20.7293C51.715 20.5466 51.423 20.4307 51.0263 20.3794C50.6273 20.3215 50.0835 20.2858 49.3904 20.268C48.3161 20.2472 47.2448 20.2293 46.1765 20.2145C45.3875 20.2056 44.7545 20.1476 44.2798 20.0473C43.805 19.9515 43.4506 19.8022 43.2144 19.5993C42.9759 19.3965 42.8199 19.1291 42.7464 18.7881C42.6773 18.4537 42.6461 18.028 42.6572 17.5176C42.6706 16.956 42.733 16.4768 42.8511 16.0756C42.9737 15.6655 43.1854 15.2978 43.4908 14.9746C43.7983 14.6403 44.2307 14.3149 44.7902 14.0073C45.3473 13.6886 46.0717 13.352 46.9565 13.0021C47.799 12.6693 48.6422 12.3372 49.4862 12.0059C50.293 11.6894 50.9639 11.4665 51.4988 11.3506C52.0382 11.2325 52.4616 11.286 52.7692 11.5111C53.079 11.7429 53.2952 12.2109 53.4089 12.9107C53.527 13.624 53.5671 14.6403 53.5203 15.9642C53.1384 16.0296 52.7581 16.0942 52.3792 16.1581C52.4126 15.1819 52.3859 14.4553 52.2989 13.9895C52.2142 13.5214 52.0582 13.2317 51.8287 13.1247C51.6058 13.02 51.296 13.0266 50.9059 13.1381C50.5137 13.2495 50.03 13.3988 49.4505 13.5861C48.6289 13.852 47.8079 14.118 46.9877 14.384C46.2857 14.6135 45.724 14.8141 45.3005 14.988C44.8815 15.1551 44.5628 15.3379 44.3444 15.5251C44.1304 15.7101 43.9811 15.9419 43.9009 16.2227C43.8273 16.4946 43.785 16.8557 43.7738 17.2992C43.7649 17.6714 43.7783 17.9701 43.8229 18.1907C43.8652 18.4136 43.9722 18.5741 44.1416 18.6788C44.3132 18.7814 44.5829 18.8393 44.9484 18.8549C45.3117 18.8683 45.8109 18.8527 46.4417 18.8059C47.5947 18.7301 48.7507 18.6558 49.9097 18.583C50.7276 18.5384 51.3784 18.5719 51.8621 18.6944C52.348 18.8148 52.7068 19.0533 52.9341 19.401C53.1637 19.7576 53.3019 20.2524 53.3465 20.8787C53.3933 21.5005 53.3888 22.2895 53.3309 23.2323C53.2662 24.253 53.1592 25.1 53.0121 25.7686C52.8695 26.4172 52.6466 26.9075 52.3413 27.2285C52.0382 27.545 51.6214 27.7032 51.0887 27.7099C50.5583 27.7077 49.8718 27.5695 49.0271 27.2976C48.1489 27.0152 47.2715 26.7337 46.3949 26.4529C45.6282 26.2055 44.9885 25.9514 44.4737 25.6928C43.9566 25.4365 43.5509 25.1334 43.2523 24.7835C42.9581 24.438 42.7553 24.0056 42.6438 23.4841C42.5302 22.9737 42.49 22.3296 42.5257 21.5406C42.8883 21.5718 43.2523 21.6038 43.6178 21.6364C43.5888 22.2984 43.6067 22.8177 43.6758 23.1988C43.7449 23.5844 43.883 23.8853 44.0881 24.1015C44.2998 24.3177 44.5962 24.4937 44.9818 24.6252C45.3719 24.7545 45.8689 24.8972 46.4707 25.0487C47.3339 25.2671 48.198 25.4856 49.0627 25.704C49.7425 25.8756 50.2797 25.9737 50.6786 25.9982C51.0776 26.0138 51.3829 25.9313 51.588 25.753C51.793 25.5613 51.9379 25.256 52.0181 24.8258C52.1028 24.3979 52.1697 23.8207 52.2142 23.0963Z" fill="white"/>
<path d="M54.784 28.7775C55.209 22.5785 55.5247 16.3082 55.7313 9.96652C58.7892 8.88184 61.9421 7.893 65.1902 7C65.269 7.93906 65.3485 8.88258 65.4287 9.83056C62.4377 10.2763 59.5804 10.8603 56.8568 11.5824C56.8018 13.7919 56.732 16.0058 56.6473 18.2242C59.3174 18.187 63.8336 18.5941 67 18.9597C66.9703 19.8393 66.9272 20.7063 66.8707 21.5607C63.7088 21.0302 59.2 20.447 56.5403 20.2969C56.3902 22.6179 56.2268 24.9105 56.05 27.175C58.729 27.8956 61.5558 28.695 64.5305 29.5732C64.3507 30.3235 64.1709 31.0724 63.9911 31.8198C60.8174 30.75 57.7483 29.7359 54.784 28.7775Z" fill="white"/>
</g>
<defs>
<filter id="filter0_dddddddd_5051_1391" x="0.759398" y="0.759398" width="72.4812" height="37.3322" filterUnits="userSpaceOnUse" color-interpolation-filters="sRGB">
<feFlood flood-opacity="0" result="BackgroundImageFix"/>
<feColorMatrix in="SourceAlpha" type="matrix" values="0 0 0 0 0 0 0 0 0 0 0 0 0 0 0 0 0 0 127 0" result="hardAlpha"/>
<feOffset/>
<feGaussianBlur stdDeviation="3.1203"/>
<feComposite in2="hardAlpha" operator="out"/>
<feColorMatrix type="matrix" values="0 0 0 0 0 0 0 0 0 1 0 0 0 0 1 0 0 0 1 0"/>
<feBlend mode="normal" in2="BackgroundImageFix" result="effect1_dropShadow_5051_1391"/>
<feColorMatrix in="SourceAlpha" type="matrix" values="0 0 0 0 0 0 0 0 0 0 0 0 0 0 0 0 0 0 127 0" result="hardAlpha"/>
<feOffset/>
<feGaussianBlur stdDeviation="3.1203"/>
<feComposite in2="hardAlpha" operator="out"/>
<feColorMatrix type="matrix" values="0 0 0 0 0 0 0 0 0 1 0 0 0 0 1 0 0 0 1 0"/>
<feBlend mode="normal" in2="effect1_dropShadow_5051_1391" result="effect2_dropShadow_5051_1391"/>
<feColorMatrix in="SourceAlpha" type="matrix" values="0 0 0 0 0 0 0 0 0 0 0 0 0 0 0 0 0 0 127 0" result="hardAlpha"/>
<feOffset/>
<feGaussianBlur stdDeviation="3.1203"/>
<feComposite in2="hardAlpha" operator="out"/>
<feColorMatrix type="matrix" values="0 0 0 0 0 0 0 0 0 1 0 0 0 0 1 0 0 0 1 0"/>
<feBlend mode="normal" in2="effect2_dropShadow_5051_1391" result="effect3_dropShadow_5051_1391"/>
<feColorMatrix in="SourceAlpha" type="matrix" values="0 0 0 0 0 0 0 0 0 0 0 0 0 0 0 0 0 0 127 0" result="hardAlpha"/>
<feOffset/>
<feGaussianBlur stdDeviation="3.1203"/>
<feComposite in2="hardAlpha" operator="out"/>
<feColorMatrix type="matrix" values="0 0 0 0 0 0 0 0 0 1 0 0 0 0 1 0 0 0 1 0"/>
<feBlend mode="normal" in2="effect3_dropShadow_5051_1391" result="effect4_dropShadow_5051_1391"/>
<feColorMatrix in="SourceAlpha" type="matrix" values="0 0 0 0 0 0 0 0 0 0 0 0 0 0 0 0 0 0 127 0" result="hardAlpha"/>
<feOffset/>
<feGaussianBlur stdDeviation="3.1203"/>
<feComposite in2="hardAlpha" operator="out"/>
<feColorMatrix type="matrix" values="0 0 0 0 0 0 0 0 0 1 0 0 0 0 1 0 0 0 1 0"/>
<feBlend mode="normal" in2="effect4_dropShadow_5051_1391" result="effect5_dropShadow_5051_1391"/>
<feColorMatrix in="SourceAlpha" type="matrix" values="0 0 0 0 0 0 0 0 0 0 0 0 0 0 0 0 0 0 127 0" result="hardAlpha"/>
<feOffset/>
<feGaussianBlur stdDeviation="3.1203"/>
<feComposite in2="hardAlpha" operator="out"/>
<feColorMatrix type="matrix" values="0 0 0 0 0 0 0 0 0 1 0 0 0 0 1 0 0 0 1 0"/>
<feBlend mode="normal" in2="effect5_dropShadow_5051_1391" result="effect6_dropShadow_5051_1391"/>
<feColorMatrix in="SourceAlpha" type="matrix" values="0 0 0 0 0 0 0 0 0 0 0 0 0 0 0 0 0 0 127 0" result="hardAlpha"/>
<feOffset/>
<feGaussianBlur stdDeviation="3.1203"/>
<feComposite in2="hardAlpha" operator="out"/>
<feColorMatrix type="matrix" values="0 0 0 0 0 0 0 0 0 1 0 0 0 0 1 0 0 0 1 0"/>
<feBlend mode="normal" in2="effect6_dropShadow_5051_1391" result="effect7_dropShadow_5051_1391"/>
<feColorMatrix in="SourceAlpha" type="matrix" values="0 0 0 0 0 0 0 0 0 0 0 0 0 0 0 0 0 0 127 0" result="hardAlpha"/>
<feOffset/>
<feGaussianBlur stdDeviation="3.1203"/>
<feComposite in2="hardAlpha" operator="out"/>
<feColorMatrix type="matrix" values="0 0 0 0 0 0 0 0 0 1 0 0 0 0 1 0 0 0 1 0"/>
<feBlend mode="normal" in2="effect7_dropShadow_5051_1391" result="effect8_dropShadow_5051_1391"/>
<feBlend mode="normal" in="SourceGraphic" in2="effect8_dropShadow_5051_1391" result="shape"/>
</filter>
</defs>
</svg>
