<svg width="510" height="463" viewBox="0 0 510 463" fill="none" xmlns="http://www.w3.org/2000/svg">
<path fill-rule="evenodd" clip-rule="evenodd" d="M138.247 240.477H215.785V39.6999C215.785 18.0827 233.327 0.544312 254.948 0.544312C276.57 0.544312 294.112 18.0827 294.112 39.6999V240.477H371.649C388.477 240.477 400.028 262.221 382.741 276.191L267.417 385.017C259.997 391.186 249.365 390.906 242.276 384.839L125.777 275.047C111.575 262.479 120.551 240.582 138.246 240.556L138.247 240.477ZM20.0187 462.56C-5.75883 462.56 -5.75883 423.405 20.0187 423.405H489.982C515.76 423.405 515.76 462.56 489.982 462.56H20.0187Z" fill="white"/>
</svg>
